<mxfile host="app.diagrams.net" agent="Mozilla/5.0 (Windows NT 10.0; Win64; x64) AppleWebKit/537.36 (KHTML, like Gecko) Chrome/129.0.0.0 Safari/537.36" version="24.7.17">
  <diagram name="1 oldal" id="_vJ8ld-SrCzRXzZP7jTy">
    <mxGraphModel dx="6904" dy="3779" grid="1" gridSize="10" guides="1" tooltips="1" connect="1" arrows="1" fold="1" page="1" pageScale="1" pageWidth="827" pageHeight="1169" math="0" shadow="0">
      <root>
        <mxCell id="0" />
        <mxCell id="1" parent="0" />
        <mxCell id="7T79qC-3Du1WpvbiEdyU-1" value="&lt;div&gt;Vendéglátás&lt;/div&gt;" style="ellipse;whiteSpace=wrap;html=1;" vertex="1" parent="1">
          <mxGeometry x="1181" y="-130" width="120" height="80" as="geometry" />
        </mxCell>
        <mxCell id="7T79qC-3Du1WpvbiEdyU-2" value="F4XQRO_Vendéglátás" style="ellipse;whiteSpace=wrap;html=1;" vertex="1" parent="1">
          <mxGeometry x="1181" y="-410" width="120" height="80" as="geometry" />
        </mxCell>
        <mxCell id="7T79qC-3Du1WpvbiEdyU-41" value="" style="group" vertex="1" connectable="0" parent="1">
          <mxGeometry x="2237" y="210" width="140" height="100" as="geometry" />
        </mxCell>
        <mxCell id="7T79qC-3Du1WpvbiEdyU-42" value="" style="ellipse;whiteSpace=wrap;html=1;" vertex="1" parent="7T79qC-3Du1WpvbiEdyU-41">
          <mxGeometry width="140" height="100" as="geometry" />
        </mxCell>
        <mxCell id="7T79qC-3Du1WpvbiEdyU-43" value="vendég" style="ellipse;whiteSpace=wrap;html=1;" vertex="1" parent="7T79qC-3Du1WpvbiEdyU-41">
          <mxGeometry x="10" y="10" width="120" height="80" as="geometry" />
        </mxCell>
        <mxCell id="7T79qC-3Du1WpvbiEdyU-44" value="életkor" style="ellipse;whiteSpace=wrap;html=1;" vertex="1" parent="1">
          <mxGeometry x="2430" y="370" width="120" height="80" as="geometry" />
        </mxCell>
        <mxCell id="7T79qC-3Du1WpvbiEdyU-45" value="név" style="ellipse;whiteSpace=wrap;html=1;" vertex="1" parent="1">
          <mxGeometry x="2060" y="380" width="120" height="80" as="geometry" />
        </mxCell>
        <mxCell id="7T79qC-3Du1WpvbiEdyU-46" value="cím" style="ellipse;whiteSpace=wrap;html=1;" vertex="1" parent="1">
          <mxGeometry x="2247" y="380" width="120" height="80" as="geometry" />
        </mxCell>
        <mxCell id="7T79qC-3Du1WpvbiEdyU-47" value="vkód" style="rhombus;whiteSpace=wrap;html=1;" vertex="1" parent="1">
          <mxGeometry x="1950" y="285" width="80" height="80" as="geometry" />
        </mxCell>
        <mxCell id="7T79qC-3Du1WpvbiEdyU-49" value="" style="rounded=0;whiteSpace=wrap;html=1;rotation=90;" vertex="1" parent="1">
          <mxGeometry x="2072" y="508" width="96" height="60" as="geometry" />
        </mxCell>
        <mxCell id="7T79qC-3Du1WpvbiEdyU-50" value="" style="rounded=0;whiteSpace=wrap;html=1;rotation=90;" vertex="1" parent="1">
          <mxGeometry x="2442" y="508" width="96" height="60" as="geometry" />
        </mxCell>
        <mxCell id="7T79qC-3Du1WpvbiEdyU-51" value="utca" style="ellipse;whiteSpace=wrap;html=1;" vertex="1" parent="1">
          <mxGeometry x="2247" y="600" width="120" height="80" as="geometry" />
        </mxCell>
        <mxCell id="7T79qC-3Du1WpvbiEdyU-52" value="város" style="ellipse;whiteSpace=wrap;html=1;" vertex="1" parent="1">
          <mxGeometry x="2107" y="600" width="120" height="80" as="geometry" />
        </mxCell>
        <mxCell id="7T79qC-3Du1WpvbiEdyU-53" value="házszám" style="ellipse;whiteSpace=wrap;html=1;" vertex="1" parent="1">
          <mxGeometry x="2387" y="600" width="120" height="80" as="geometry" />
        </mxCell>
        <mxCell id="7T79qC-3Du1WpvbiEdyU-54" value="" style="rounded=0;whiteSpace=wrap;html=1;rotation=90;" vertex="1" parent="1">
          <mxGeometry x="2397" y="760" width="100" height="60" as="geometry" />
        </mxCell>
        <mxCell id="7T79qC-3Du1WpvbiEdyU-55" value="" style="rounded=0;whiteSpace=wrap;html=1;rotation=90;" vertex="1" parent="1">
          <mxGeometry x="2117" y="760" width="100" height="60" as="geometry" />
        </mxCell>
        <mxCell id="7T79qC-3Du1WpvbiEdyU-56" value="" style="rounded=0;whiteSpace=wrap;html=1;rotation=90;" vertex="1" parent="1">
          <mxGeometry x="2257" y="760" width="100" height="60" as="geometry" />
        </mxCell>
        <mxCell id="7T79qC-3Du1WpvbiEdyU-57" value="" style="endArrow=none;html=1;rounded=0;entryX=0;entryY=0.5;entryDx=0;entryDy=0;exitX=0.5;exitY=1;exitDx=0;exitDy=0;" edge="1" parent="1" source="7T79qC-3Du1WpvbiEdyU-52" target="7T79qC-3Du1WpvbiEdyU-55">
          <mxGeometry width="50" height="50" relative="1" as="geometry">
            <mxPoint x="2177" y="610" as="sourcePoint" />
            <mxPoint x="2317" y="480" as="targetPoint" />
          </mxGeometry>
        </mxCell>
        <mxCell id="7T79qC-3Du1WpvbiEdyU-58" value="" style="endArrow=none;html=1;rounded=0;entryX=0;entryY=0.5;entryDx=0;entryDy=0;exitX=0.5;exitY=1;exitDx=0;exitDy=0;" edge="1" parent="1" source="7T79qC-3Du1WpvbiEdyU-51" target="7T79qC-3Du1WpvbiEdyU-56">
          <mxGeometry width="50" height="50" relative="1" as="geometry">
            <mxPoint x="2187" y="620" as="sourcePoint" />
            <mxPoint x="2327" y="490" as="targetPoint" />
          </mxGeometry>
        </mxCell>
        <mxCell id="7T79qC-3Du1WpvbiEdyU-59" value="" style="endArrow=none;html=1;rounded=0;entryX=0.5;entryY=1;entryDx=0;entryDy=0;exitX=0;exitY=0.5;exitDx=0;exitDy=0;" edge="1" parent="1" source="7T79qC-3Du1WpvbiEdyU-54" target="7T79qC-3Du1WpvbiEdyU-53">
          <mxGeometry width="50" height="50" relative="1" as="geometry">
            <mxPoint x="2447" y="730" as="sourcePoint" />
            <mxPoint x="2337" y="500" as="targetPoint" />
          </mxGeometry>
        </mxCell>
        <mxCell id="7T79qC-3Du1WpvbiEdyU-60" value="" style="endArrow=none;html=1;rounded=0;entryX=0.5;entryY=1;entryDx=0;entryDy=0;exitX=0;exitY=0.5;exitDx=0;exitDy=0;" edge="1" parent="1" source="7T79qC-3Du1WpvbiEdyU-49" target="7T79qC-3Du1WpvbiEdyU-45">
          <mxGeometry width="50" height="50" relative="1" as="geometry">
            <mxPoint x="1880" y="590" as="sourcePoint" />
            <mxPoint x="1930" y="540" as="targetPoint" />
          </mxGeometry>
        </mxCell>
        <mxCell id="7T79qC-3Du1WpvbiEdyU-61" value="" style="endArrow=none;html=1;rounded=0;entryX=0.5;entryY=1;entryDx=0;entryDy=0;exitX=0.5;exitY=0;exitDx=0;exitDy=0;" edge="1" parent="1" source="7T79qC-3Du1WpvbiEdyU-52" target="7T79qC-3Du1WpvbiEdyU-46">
          <mxGeometry width="50" height="50" relative="1" as="geometry">
            <mxPoint x="1880" y="590" as="sourcePoint" />
            <mxPoint x="1930" y="540" as="targetPoint" />
          </mxGeometry>
        </mxCell>
        <mxCell id="7T79qC-3Du1WpvbiEdyU-62" value="" style="endArrow=none;html=1;rounded=0;entryX=0.5;entryY=1;entryDx=0;entryDy=0;exitX=0.5;exitY=0;exitDx=0;exitDy=0;" edge="1" parent="1" source="7T79qC-3Du1WpvbiEdyU-51" target="7T79qC-3Du1WpvbiEdyU-46">
          <mxGeometry width="50" height="50" relative="1" as="geometry">
            <mxPoint x="1890" y="600" as="sourcePoint" />
            <mxPoint x="1940" y="550" as="targetPoint" />
          </mxGeometry>
        </mxCell>
        <mxCell id="7T79qC-3Du1WpvbiEdyU-63" value="" style="endArrow=none;html=1;rounded=0;entryX=0.5;entryY=1;entryDx=0;entryDy=0;exitX=0;exitY=0.5;exitDx=0;exitDy=0;" edge="1" parent="1" source="7T79qC-3Du1WpvbiEdyU-50" target="7T79qC-3Du1WpvbiEdyU-44">
          <mxGeometry width="50" height="50" relative="1" as="geometry">
            <mxPoint x="1880" y="590" as="sourcePoint" />
            <mxPoint x="1930" y="540" as="targetPoint" />
          </mxGeometry>
        </mxCell>
        <mxCell id="7T79qC-3Du1WpvbiEdyU-64" value="" style="endArrow=none;html=1;rounded=0;entryX=0.5;entryY=1;entryDx=0;entryDy=0;exitX=0.5;exitY=0;exitDx=0;exitDy=0;" edge="1" parent="1" source="7T79qC-3Du1WpvbiEdyU-53" target="7T79qC-3Du1WpvbiEdyU-46">
          <mxGeometry width="50" height="50" relative="1" as="geometry">
            <mxPoint x="1880" y="590" as="sourcePoint" />
            <mxPoint x="1930" y="540" as="targetPoint" />
          </mxGeometry>
        </mxCell>
        <mxCell id="7T79qC-3Du1WpvbiEdyU-65" value="" style="endArrow=none;html=1;rounded=0;entryX=0.5;entryY=1;entryDx=0;entryDy=0;exitX=0.5;exitY=0;exitDx=0;exitDy=0;" edge="1" parent="1" source="7T79qC-3Du1WpvbiEdyU-45" target="7T79qC-3Du1WpvbiEdyU-42">
          <mxGeometry width="50" height="50" relative="1" as="geometry">
            <mxPoint x="2150" y="460" as="sourcePoint" />
            <mxPoint x="2200" y="410" as="targetPoint" />
          </mxGeometry>
        </mxCell>
        <mxCell id="7T79qC-3Du1WpvbiEdyU-66" value="" style="endArrow=none;html=1;rounded=0;entryX=0.5;entryY=1;entryDx=0;entryDy=0;exitX=0.5;exitY=0;exitDx=0;exitDy=0;" edge="1" parent="1" source="7T79qC-3Du1WpvbiEdyU-46" target="7T79qC-3Du1WpvbiEdyU-42">
          <mxGeometry width="50" height="50" relative="1" as="geometry">
            <mxPoint x="1900" y="610" as="sourcePoint" />
            <mxPoint x="1950" y="560" as="targetPoint" />
          </mxGeometry>
        </mxCell>
        <mxCell id="7T79qC-3Du1WpvbiEdyU-67" value="" style="endArrow=none;html=1;rounded=0;entryX=0;entryY=0.5;entryDx=0;entryDy=0;exitX=1;exitY=0;exitDx=0;exitDy=0;" edge="1" parent="1" source="7T79qC-3Du1WpvbiEdyU-47" target="7T79qC-3Du1WpvbiEdyU-42">
          <mxGeometry width="50" height="50" relative="1" as="geometry">
            <mxPoint x="1910" y="620" as="sourcePoint" />
            <mxPoint x="1960" y="570" as="targetPoint" />
          </mxGeometry>
        </mxCell>
        <mxCell id="7T79qC-3Du1WpvbiEdyU-68" value="" style="endArrow=none;html=1;rounded=0;entryX=0.5;entryY=1;entryDx=0;entryDy=0;exitX=0.5;exitY=0;exitDx=0;exitDy=0;" edge="1" parent="1" source="7T79qC-3Du1WpvbiEdyU-44" target="7T79qC-3Du1WpvbiEdyU-42">
          <mxGeometry width="50" height="50" relative="1" as="geometry">
            <mxPoint x="1920" y="630" as="sourcePoint" />
            <mxPoint x="1970" y="580" as="targetPoint" />
          </mxGeometry>
        </mxCell>
        <mxCell id="7T79qC-3Du1WpvbiEdyU-70" value="" style="group" vertex="1" connectable="0" parent="1">
          <mxGeometry x="100" y="225" width="140" height="100" as="geometry" />
        </mxCell>
        <mxCell id="7T79qC-3Du1WpvbiEdyU-71" value="" style="ellipse;whiteSpace=wrap;html=1;" vertex="1" parent="7T79qC-3Du1WpvbiEdyU-70">
          <mxGeometry width="140" height="100" as="geometry" />
        </mxCell>
        <mxCell id="7T79qC-3Du1WpvbiEdyU-72" value="Foszakacs" style="ellipse;whiteSpace=wrap;html=1;" vertex="1" parent="7T79qC-3Du1WpvbiEdyU-70">
          <mxGeometry x="10" y="10" width="120" height="80" as="geometry" />
        </mxCell>
        <mxCell id="7T79qC-3Du1WpvbiEdyU-75" value="Eletkor" style="ellipse;whiteSpace=wrap;html=1;" vertex="1" parent="1">
          <mxGeometry x="110" y="395" width="120" height="80" as="geometry" />
        </mxCell>
        <mxCell id="7T79qC-3Du1WpvbiEdyU-76" value="Nev&lt;div&gt;&lt;br&gt;&lt;/div&gt;" style="ellipse;whiteSpace=wrap;html=1;" vertex="1" parent="1">
          <mxGeometry x="-80" y="395" width="120" height="80" as="geometry" />
        </mxCell>
        <mxCell id="7T79qC-3Du1WpvbiEdyU-78" value="" style="group" vertex="1" connectable="0" parent="1">
          <mxGeometry x="300" y="395" width="120" height="80" as="geometry" />
        </mxCell>
        <mxCell id="7T79qC-3Du1WpvbiEdyU-74" value="" style="ellipse;whiteSpace=wrap;html=1;" vertex="1" parent="7T79qC-3Du1WpvbiEdyU-78">
          <mxGeometry width="120" height="80" as="geometry" />
        </mxCell>
        <mxCell id="7T79qC-3Du1WpvbiEdyU-77" value="Vegzettseg" style="ellipse;whiteSpace=wrap;html=1;" vertex="1" parent="7T79qC-3Du1WpvbiEdyU-78">
          <mxGeometry x="5" y="5" width="110" height="70" as="geometry" />
        </mxCell>
        <mxCell id="7T79qC-3Du1WpvbiEdyU-227" style="edgeStyle=orthogonalEdgeStyle;rounded=0;orthogonalLoop=1;jettySize=auto;html=1;dashed=1;entryX=0.5;entryY=1;entryDx=0;entryDy=0;" edge="1" parent="1" source="7T79qC-3Du1WpvbiEdyU-79" target="7T79qC-3Du1WpvbiEdyU-92">
          <mxGeometry relative="1" as="geometry">
            <mxPoint x="-780" y="-96.52173913043481" as="targetPoint" />
            <Array as="points">
              <mxPoint x="460" y="880" />
              <mxPoint x="-780" y="880" />
            </Array>
          </mxGeometry>
        </mxCell>
        <mxCell id="7T79qC-3Du1WpvbiEdyU-79" value="E_F" style="rhombus;whiteSpace=wrap;html=1;" vertex="1" parent="1">
          <mxGeometry x="420" y="295" width="80" height="80" as="geometry" />
        </mxCell>
        <mxCell id="7T79qC-3Du1WpvbiEdyU-80" value="Fkod" style="rhombus;whiteSpace=wrap;html=1;" vertex="1" parent="1">
          <mxGeometry x="-160" y="295" width="80" height="80" as="geometry" />
        </mxCell>
        <mxCell id="7T79qC-3Du1WpvbiEdyU-81" value="" style="endArrow=none;html=1;rounded=0;entryX=0;entryY=0;entryDx=0;entryDy=0;exitX=1;exitY=0.5;exitDx=0;exitDy=0;" edge="1" parent="1" source="7T79qC-3Du1WpvbiEdyU-71" target="7T79qC-3Du1WpvbiEdyU-79">
          <mxGeometry width="50" height="50" relative="1" as="geometry">
            <mxPoint x="370" y="435" as="sourcePoint" />
            <mxPoint x="420" y="385" as="targetPoint" />
          </mxGeometry>
        </mxCell>
        <mxCell id="7T79qC-3Du1WpvbiEdyU-82" value="" style="endArrow=none;html=1;rounded=0;entryX=0;entryY=0.5;entryDx=0;entryDy=0;exitX=1;exitY=0;exitDx=0;exitDy=0;" edge="1" parent="1" source="7T79qC-3Du1WpvbiEdyU-80" target="7T79qC-3Du1WpvbiEdyU-71">
          <mxGeometry width="50" height="50" relative="1" as="geometry">
            <mxPoint x="370" y="435" as="sourcePoint" />
            <mxPoint x="420" y="385" as="targetPoint" />
          </mxGeometry>
        </mxCell>
        <mxCell id="7T79qC-3Du1WpvbiEdyU-83" value="" style="rounded=0;whiteSpace=wrap;html=1;rotation=90;" vertex="1" parent="1">
          <mxGeometry x="310" y="525" width="100" height="60" as="geometry" />
        </mxCell>
        <mxCell id="7T79qC-3Du1WpvbiEdyU-84" value="" style="rounded=0;whiteSpace=wrap;html=1;rotation=90;" vertex="1" parent="1">
          <mxGeometry x="120" y="523" width="100" height="60" as="geometry" />
        </mxCell>
        <mxCell id="7T79qC-3Du1WpvbiEdyU-85" value="" style="rounded=0;whiteSpace=wrap;html=1;rotation=90;" vertex="1" parent="1">
          <mxGeometry x="-70" y="523" width="100" height="60" as="geometry" />
        </mxCell>
        <mxCell id="7T79qC-3Du1WpvbiEdyU-86" value="" style="endArrow=none;html=1;rounded=0;entryX=0.5;entryY=1;entryDx=0;entryDy=0;exitX=0.5;exitY=0;exitDx=0;exitDy=0;" edge="1" parent="1" source="7T79qC-3Du1WpvbiEdyU-77" target="7T79qC-3Du1WpvbiEdyU-71">
          <mxGeometry width="50" height="50" relative="1" as="geometry">
            <mxPoint x="370" y="435" as="sourcePoint" />
            <mxPoint x="420" y="385" as="targetPoint" />
          </mxGeometry>
        </mxCell>
        <mxCell id="7T79qC-3Du1WpvbiEdyU-87" value="" style="endArrow=none;html=1;rounded=0;entryX=0.5;entryY=1;entryDx=0;entryDy=0;exitX=0;exitY=0.5;exitDx=0;exitDy=0;" edge="1" parent="1" source="7T79qC-3Du1WpvbiEdyU-85" target="7T79qC-3Du1WpvbiEdyU-76">
          <mxGeometry width="50" height="50" relative="1" as="geometry">
            <mxPoint x="380" y="445" as="sourcePoint" />
            <mxPoint x="430" y="395" as="targetPoint" />
          </mxGeometry>
        </mxCell>
        <mxCell id="7T79qC-3Du1WpvbiEdyU-88" value="" style="endArrow=none;html=1;rounded=0;entryX=0.5;entryY=1;entryDx=0;entryDy=0;exitX=0;exitY=0.5;exitDx=0;exitDy=0;" edge="1" parent="1" source="7T79qC-3Du1WpvbiEdyU-84" target="7T79qC-3Du1WpvbiEdyU-75">
          <mxGeometry width="50" height="50" relative="1" as="geometry">
            <mxPoint x="390" y="455" as="sourcePoint" />
            <mxPoint x="440" y="405" as="targetPoint" />
          </mxGeometry>
        </mxCell>
        <mxCell id="7T79qC-3Du1WpvbiEdyU-89" value="" style="endArrow=none;html=1;rounded=0;entryX=0.5;entryY=1;entryDx=0;entryDy=0;exitX=0;exitY=0.5;exitDx=0;exitDy=0;" edge="1" parent="1" source="7T79qC-3Du1WpvbiEdyU-83" target="7T79qC-3Du1WpvbiEdyU-74">
          <mxGeometry width="50" height="50" relative="1" as="geometry">
            <mxPoint x="400" y="465" as="sourcePoint" />
            <mxPoint x="450" y="415" as="targetPoint" />
          </mxGeometry>
        </mxCell>
        <mxCell id="7T79qC-3Du1WpvbiEdyU-90" value="" style="endArrow=none;html=1;rounded=0;entryX=0.5;entryY=1;entryDx=0;entryDy=0;exitX=0.5;exitY=0;exitDx=0;exitDy=0;" edge="1" parent="1" source="7T79qC-3Du1WpvbiEdyU-75" target="7T79qC-3Du1WpvbiEdyU-71">
          <mxGeometry width="50" height="50" relative="1" as="geometry">
            <mxPoint x="410" y="475" as="sourcePoint" />
            <mxPoint x="460" y="425" as="targetPoint" />
          </mxGeometry>
        </mxCell>
        <mxCell id="7T79qC-3Du1WpvbiEdyU-91" value="" style="endArrow=none;html=1;rounded=0;entryX=0.5;entryY=1;entryDx=0;entryDy=0;exitX=0.5;exitY=0;exitDx=0;exitDy=0;" edge="1" parent="1" source="7T79qC-3Du1WpvbiEdyU-76" target="7T79qC-3Du1WpvbiEdyU-71">
          <mxGeometry width="50" height="50" relative="1" as="geometry">
            <mxPoint x="420" y="485" as="sourcePoint" />
            <mxPoint x="470" y="435" as="targetPoint" />
          </mxGeometry>
        </mxCell>
        <mxCell id="7T79qC-3Du1WpvbiEdyU-92" value="ekód" style="rhombus;whiteSpace=wrap;html=1;" vertex="1" parent="1">
          <mxGeometry x="-820" y="290" width="80" height="80" as="geometry" />
        </mxCell>
        <mxCell id="7T79qC-3Du1WpvbiEdyU-93" value="" style="group" vertex="1" connectable="0" parent="1">
          <mxGeometry x="-550" y="220" width="140" height="100" as="geometry" />
        </mxCell>
        <mxCell id="7T79qC-3Du1WpvbiEdyU-94" value="" style="ellipse;whiteSpace=wrap;html=1;" vertex="1" parent="7T79qC-3Du1WpvbiEdyU-93">
          <mxGeometry width="140" height="100" as="geometry" />
        </mxCell>
        <mxCell id="7T79qC-3Du1WpvbiEdyU-95" value="étterem" style="ellipse;whiteSpace=wrap;html=1;" vertex="1" parent="7T79qC-3Du1WpvbiEdyU-93">
          <mxGeometry x="10" y="10" width="120" height="80" as="geometry" />
        </mxCell>
        <mxCell id="7T79qC-3Du1WpvbiEdyU-96" value="cím" style="ellipse;whiteSpace=wrap;html=1;" vertex="1" parent="1">
          <mxGeometry x="-540" y="390" width="120" height="80" as="geometry" />
        </mxCell>
        <mxCell id="7T79qC-3Du1WpvbiEdyU-97" value="név" style="ellipse;whiteSpace=wrap;html=1;" vertex="1" parent="1">
          <mxGeometry x="-770" y="390" width="120" height="80" as="geometry" />
        </mxCell>
        <mxCell id="7T79qC-3Du1WpvbiEdyU-98" value="csillag" style="ellipse;whiteSpace=wrap;html=1;" vertex="1" parent="1">
          <mxGeometry x="-306.5" y="390" width="120" height="80" as="geometry" />
        </mxCell>
        <mxCell id="7T79qC-3Du1WpvbiEdyU-99" value="" style="endArrow=none;html=1;rounded=0;entryX=0.5;entryY=1;entryDx=0;entryDy=0;exitX=0;exitY=0.5;exitDx=0;exitDy=0;" edge="1" parent="1" source="7T79qC-3Du1WpvbiEdyU-111" target="7T79qC-3Du1WpvbiEdyU-97">
          <mxGeometry width="50" height="50" relative="1" as="geometry">
            <mxPoint x="-710" y="520" as="sourcePoint" />
            <mxPoint x="-450" y="490" as="targetPoint" />
          </mxGeometry>
        </mxCell>
        <mxCell id="7T79qC-3Du1WpvbiEdyU-100" value="utca" style="ellipse;whiteSpace=wrap;html=1;" vertex="1" parent="1">
          <mxGeometry x="-540" y="600" width="120" height="80" as="geometry" />
        </mxCell>
        <mxCell id="7T79qC-3Du1WpvbiEdyU-101" value="város" style="ellipse;whiteSpace=wrap;html=1;" vertex="1" parent="1">
          <mxGeometry x="-680" y="600" width="120" height="80" as="geometry" />
        </mxCell>
        <mxCell id="7T79qC-3Du1WpvbiEdyU-102" value="házszám" style="ellipse;whiteSpace=wrap;html=1;" vertex="1" parent="1">
          <mxGeometry x="-400" y="600" width="120" height="80" as="geometry" />
        </mxCell>
        <mxCell id="7T79qC-3Du1WpvbiEdyU-103" value="" style="endArrow=none;html=1;rounded=0;entryX=0.5;entryY=1;entryDx=0;entryDy=0;exitX=0;exitY=0.5;exitDx=0;exitDy=0;" edge="1" parent="1" source="7T79qC-3Du1WpvbiEdyU-110" target="7T79qC-3Du1WpvbiEdyU-98">
          <mxGeometry width="50" height="50" relative="1" as="geometry">
            <mxPoint x="-246" y="510" as="sourcePoint" />
            <mxPoint x="-450" y="490" as="targetPoint" />
          </mxGeometry>
        </mxCell>
        <mxCell id="7T79qC-3Du1WpvbiEdyU-104" value="" style="endArrow=none;html=1;rounded=0;entryX=0.5;entryY=1;entryDx=0;entryDy=0;exitX=0.5;exitY=0;exitDx=0;exitDy=0;" edge="1" parent="1" source="7T79qC-3Du1WpvbiEdyU-101" target="7T79qC-3Du1WpvbiEdyU-96">
          <mxGeometry width="50" height="50" relative="1" as="geometry">
            <mxPoint x="-500" y="540" as="sourcePoint" />
            <mxPoint x="-450" y="490" as="targetPoint" />
          </mxGeometry>
        </mxCell>
        <mxCell id="7T79qC-3Du1WpvbiEdyU-105" value="" style="endArrow=none;html=1;rounded=0;entryX=0.5;entryY=1;entryDx=0;entryDy=0;exitX=0.5;exitY=0;exitDx=0;exitDy=0;" edge="1" parent="1" source="7T79qC-3Du1WpvbiEdyU-102" target="7T79qC-3Du1WpvbiEdyU-96">
          <mxGeometry width="50" height="50" relative="1" as="geometry">
            <mxPoint x="-500" y="540" as="sourcePoint" />
            <mxPoint x="-450" y="490" as="targetPoint" />
          </mxGeometry>
        </mxCell>
        <mxCell id="7T79qC-3Du1WpvbiEdyU-106" value="" style="endArrow=none;html=1;rounded=0;entryX=0.5;entryY=1;entryDx=0;entryDy=0;exitX=0.5;exitY=0;exitDx=0;exitDy=0;" edge="1" parent="1" source="7T79qC-3Du1WpvbiEdyU-100" target="7T79qC-3Du1WpvbiEdyU-96">
          <mxGeometry width="50" height="50" relative="1" as="geometry">
            <mxPoint x="-500" y="540" as="sourcePoint" />
            <mxPoint x="-450" y="490" as="targetPoint" />
          </mxGeometry>
        </mxCell>
        <mxCell id="7T79qC-3Du1WpvbiEdyU-107" value="" style="endArrow=none;html=1;rounded=0;entryX=0.5;entryY=1;entryDx=0;entryDy=0;exitX=0.5;exitY=0;exitDx=0;exitDy=0;" edge="1" parent="1" source="7T79qC-3Du1WpvbiEdyU-97" target="7T79qC-3Du1WpvbiEdyU-94">
          <mxGeometry width="50" height="50" relative="1" as="geometry">
            <mxPoint x="-500" y="540" as="sourcePoint" />
            <mxPoint x="-450" y="490" as="targetPoint" />
          </mxGeometry>
        </mxCell>
        <mxCell id="7T79qC-3Du1WpvbiEdyU-108" value="" style="endArrow=none;html=1;rounded=0;entryX=0.5;entryY=1;entryDx=0;entryDy=0;exitX=0.5;exitY=0;exitDx=0;exitDy=0;" edge="1" parent="1" source="7T79qC-3Du1WpvbiEdyU-96" target="7T79qC-3Du1WpvbiEdyU-94">
          <mxGeometry width="50" height="50" relative="1" as="geometry">
            <mxPoint x="-500" y="540" as="sourcePoint" />
            <mxPoint x="-450" y="490" as="targetPoint" />
          </mxGeometry>
        </mxCell>
        <mxCell id="7T79qC-3Du1WpvbiEdyU-109" value="" style="endArrow=none;html=1;rounded=0;entryX=0.5;entryY=1;entryDx=0;entryDy=0;exitX=0.5;exitY=0;exitDx=0;exitDy=0;" edge="1" parent="1" source="7T79qC-3Du1WpvbiEdyU-98" target="7T79qC-3Du1WpvbiEdyU-94">
          <mxGeometry width="50" height="50" relative="1" as="geometry">
            <mxPoint x="-500" y="540" as="sourcePoint" />
            <mxPoint x="-450" y="490" as="targetPoint" />
          </mxGeometry>
        </mxCell>
        <mxCell id="7T79qC-3Du1WpvbiEdyU-110" value="" style="rounded=0;whiteSpace=wrap;html=1;rotation=90;" vertex="1" parent="1">
          <mxGeometry x="-294" y="518" width="96" height="60" as="geometry" />
        </mxCell>
        <mxCell id="7T79qC-3Du1WpvbiEdyU-111" value="" style="rounded=0;whiteSpace=wrap;html=1;rotation=90;" vertex="1" parent="1">
          <mxGeometry x="-760" y="520" width="100" height="60" as="geometry" />
        </mxCell>
        <mxCell id="7T79qC-3Du1WpvbiEdyU-112" value="" style="rounded=0;whiteSpace=wrap;html=1;rotation=90;" vertex="1" parent="1">
          <mxGeometry x="-390" y="760" width="100" height="60" as="geometry" />
        </mxCell>
        <mxCell id="7T79qC-3Du1WpvbiEdyU-113" value="" style="rounded=0;whiteSpace=wrap;html=1;rotation=90;" vertex="1" parent="1">
          <mxGeometry x="-670" y="760" width="100" height="60" as="geometry" />
        </mxCell>
        <mxCell id="7T79qC-3Du1WpvbiEdyU-114" value="" style="rounded=0;whiteSpace=wrap;html=1;rotation=90;" vertex="1" parent="1">
          <mxGeometry x="-530" y="760" width="100" height="60" as="geometry" />
        </mxCell>
        <mxCell id="7T79qC-3Du1WpvbiEdyU-115" value="" style="endArrow=none;html=1;rounded=0;entryX=0;entryY=0.5;entryDx=0;entryDy=0;exitX=0.5;exitY=1;exitDx=0;exitDy=0;" edge="1" parent="1" source="7T79qC-3Du1WpvbiEdyU-101" target="7T79qC-3Du1WpvbiEdyU-113">
          <mxGeometry width="50" height="50" relative="1" as="geometry">
            <mxPoint x="-610" y="610" as="sourcePoint" />
            <mxPoint x="-470" y="480" as="targetPoint" />
          </mxGeometry>
        </mxCell>
        <mxCell id="7T79qC-3Du1WpvbiEdyU-116" value="" style="endArrow=none;html=1;rounded=0;entryX=0;entryY=0.5;entryDx=0;entryDy=0;exitX=0.5;exitY=1;exitDx=0;exitDy=0;" edge="1" parent="1" source="7T79qC-3Du1WpvbiEdyU-100" target="7T79qC-3Du1WpvbiEdyU-114">
          <mxGeometry width="50" height="50" relative="1" as="geometry">
            <mxPoint x="-600" y="620" as="sourcePoint" />
            <mxPoint x="-460" y="490" as="targetPoint" />
          </mxGeometry>
        </mxCell>
        <mxCell id="7T79qC-3Du1WpvbiEdyU-117" value="" style="endArrow=none;html=1;rounded=0;entryX=0.5;entryY=1;entryDx=0;entryDy=0;exitX=0;exitY=0.5;exitDx=0;exitDy=0;" edge="1" parent="1" source="7T79qC-3Du1WpvbiEdyU-112" target="7T79qC-3Du1WpvbiEdyU-102">
          <mxGeometry width="50" height="50" relative="1" as="geometry">
            <mxPoint x="-340" y="730" as="sourcePoint" />
            <mxPoint x="-450" y="500" as="targetPoint" />
          </mxGeometry>
        </mxCell>
        <mxCell id="7T79qC-3Du1WpvbiEdyU-118" value="" style="endArrow=none;html=1;rounded=0;entryX=0;entryY=0.5;entryDx=0;entryDy=0;exitX=1;exitY=0;exitDx=0;exitDy=0;" edge="1" parent="1" source="7T79qC-3Du1WpvbiEdyU-92" target="7T79qC-3Du1WpvbiEdyU-94">
          <mxGeometry width="50" height="50" relative="1" as="geometry">
            <mxPoint x="-580" y="640" as="sourcePoint" />
            <mxPoint x="-440" y="510" as="targetPoint" />
          </mxGeometry>
        </mxCell>
        <mxCell id="7T79qC-3Du1WpvbiEdyU-128" value="" style="group" vertex="1" connectable="0" parent="1">
          <mxGeometry x="2720" y="210" width="140" height="100" as="geometry" />
        </mxCell>
        <mxCell id="7T79qC-3Du1WpvbiEdyU-129" value="" style="ellipse;whiteSpace=wrap;html=1;" vertex="1" parent="7T79qC-3Du1WpvbiEdyU-128">
          <mxGeometry width="140" height="100" as="geometry" />
        </mxCell>
        <mxCell id="7T79qC-3Du1WpvbiEdyU-130" value="rendelés" style="ellipse;whiteSpace=wrap;html=1;" vertex="1" parent="7T79qC-3Du1WpvbiEdyU-128">
          <mxGeometry x="10" y="10" width="120" height="80" as="geometry" />
        </mxCell>
        <mxCell id="7T79qC-3Du1WpvbiEdyU-131" value="Etel" style="ellipse;whiteSpace=wrap;html=1;" vertex="1" parent="1">
          <mxGeometry x="2850" y="365" width="120" height="80" as="geometry" />
        </mxCell>
        <mxCell id="7T79qC-3Du1WpvbiEdyU-132" value="Osszeg" style="ellipse;whiteSpace=wrap;html=1;" vertex="1" parent="1">
          <mxGeometry x="2600" y="365" width="120" height="80" as="geometry" />
        </mxCell>
        <mxCell id="7T79qC-3Du1WpvbiEdyU-133" value="" style="rounded=0;whiteSpace=wrap;html=1;rotation=90;" vertex="1" parent="1">
          <mxGeometry x="2862" y="508" width="96" height="60" as="geometry" />
        </mxCell>
        <mxCell id="7T79qC-3Du1WpvbiEdyU-134" value="" style="rounded=0;whiteSpace=wrap;html=1;rotation=90;" vertex="1" parent="1">
          <mxGeometry x="2612" y="508" width="96" height="60" as="geometry" />
        </mxCell>
        <mxCell id="7T79qC-3Du1WpvbiEdyU-135" value="" style="endArrow=none;html=1;rounded=0;entryX=0.5;entryY=1;entryDx=0;entryDy=0;exitX=0;exitY=0.5;exitDx=0;exitDy=0;" edge="1" parent="1" source="7T79qC-3Du1WpvbiEdyU-134" target="7T79qC-3Du1WpvbiEdyU-132">
          <mxGeometry width="50" height="50" relative="1" as="geometry">
            <mxPoint x="2390" y="410" as="sourcePoint" />
            <mxPoint x="2440" y="360" as="targetPoint" />
          </mxGeometry>
        </mxCell>
        <mxCell id="7T79qC-3Du1WpvbiEdyU-136" value="" style="endArrow=none;html=1;rounded=0;entryX=0.5;entryY=1;entryDx=0;entryDy=0;exitX=0.5;exitY=0;exitDx=0;exitDy=0;" edge="1" parent="1" source="7T79qC-3Du1WpvbiEdyU-131" target="7T79qC-3Du1WpvbiEdyU-129">
          <mxGeometry width="50" height="50" relative="1" as="geometry">
            <mxPoint x="2670" y="500" as="sourcePoint" />
            <mxPoint x="2670" y="455" as="targetPoint" />
          </mxGeometry>
        </mxCell>
        <mxCell id="7T79qC-3Du1WpvbiEdyU-137" value="" style="endArrow=none;html=1;rounded=0;entryX=0.5;entryY=1;entryDx=0;entryDy=0;exitX=0.5;exitY=0;exitDx=0;exitDy=0;" edge="1" parent="1" source="7T79qC-3Du1WpvbiEdyU-132" target="7T79qC-3Du1WpvbiEdyU-129">
          <mxGeometry width="50" height="50" relative="1" as="geometry">
            <mxPoint x="2680" y="510" as="sourcePoint" />
            <mxPoint x="2680" y="465" as="targetPoint" />
          </mxGeometry>
        </mxCell>
        <mxCell id="7T79qC-3Du1WpvbiEdyU-138" value="" style="endArrow=none;html=1;rounded=0;entryX=0.5;entryY=1;entryDx=0;entryDy=0;exitX=0;exitY=0.5;exitDx=0;exitDy=0;" edge="1" parent="1" source="7T79qC-3Du1WpvbiEdyU-133" target="7T79qC-3Du1WpvbiEdyU-131">
          <mxGeometry width="50" height="50" relative="1" as="geometry">
            <mxPoint x="2690" y="520" as="sourcePoint" />
            <mxPoint x="2690" y="475" as="targetPoint" />
          </mxGeometry>
        </mxCell>
        <mxCell id="7T79qC-3Du1WpvbiEdyU-224" style="rounded=0;orthogonalLoop=1;jettySize=auto;html=1;dashed=1;edgeStyle=orthogonalEdgeStyle;entryX=0.5;entryY=1;entryDx=0;entryDy=0;" edge="1" parent="1" source="7T79qC-3Du1WpvbiEdyU-139" target="7T79qC-3Du1WpvbiEdyU-47">
          <mxGeometry relative="1" as="geometry">
            <mxPoint x="1990" y="890" as="targetPoint" />
            <Array as="points">
              <mxPoint x="2572" y="627" />
              <mxPoint x="2571" y="627" />
              <mxPoint x="2571" y="890" />
              <mxPoint x="1990" y="890" />
            </Array>
          </mxGeometry>
        </mxCell>
        <mxCell id="7T79qC-3Du1WpvbiEdyU-139" value="E_V_V" style="rhombus;whiteSpace=wrap;html=1;" vertex="1" parent="1">
          <mxGeometry x="2532" y="285" width="80" height="80" as="geometry" />
        </mxCell>
        <mxCell id="7T79qC-3Du1WpvbiEdyU-225" style="edgeStyle=orthogonalEdgeStyle;rounded=0;orthogonalLoop=1;jettySize=auto;html=1;dashed=1;entryX=0.293;entryY=0.183;entryDx=0;entryDy=0;entryPerimeter=0;" edge="1" parent="1" source="7T79qC-3Du1WpvbiEdyU-221" target="7T79qC-3Du1WpvbiEdyU-92">
          <mxGeometry relative="1" as="geometry">
            <mxPoint x="-870" y="290" as="targetPoint" />
            <Array as="points">
              <mxPoint x="3120" y="325" />
              <mxPoint x="3120" y="950" />
              <mxPoint x="-870" y="950" />
              <mxPoint x="-870" y="305" />
            </Array>
          </mxGeometry>
        </mxCell>
        <mxCell id="7T79qC-3Du1WpvbiEdyU-221" value="E_V_E" style="rhombus;whiteSpace=wrap;html=1;" vertex="1" parent="1">
          <mxGeometry x="2984" y="285" width="80" height="80" as="geometry" />
        </mxCell>
        <mxCell id="7T79qC-3Du1WpvbiEdyU-222" value="" style="endArrow=none;html=1;rounded=0;entryX=0;entryY=0.5;entryDx=0;entryDy=0;exitX=1;exitY=0;exitDx=0;exitDy=0;" edge="1" parent="1" source="7T79qC-3Du1WpvbiEdyU-139" target="7T79qC-3Du1WpvbiEdyU-129">
          <mxGeometry width="50" height="50" relative="1" as="geometry">
            <mxPoint x="2730" y="380" as="sourcePoint" />
            <mxPoint x="2780" y="330" as="targetPoint" />
          </mxGeometry>
        </mxCell>
        <mxCell id="7T79qC-3Du1WpvbiEdyU-223" value="" style="endArrow=none;html=1;rounded=0;entryX=1;entryY=0.5;entryDx=0;entryDy=0;exitX=0;exitY=0;exitDx=0;exitDy=0;" edge="1" parent="1" source="7T79qC-3Du1WpvbiEdyU-221" target="7T79qC-3Du1WpvbiEdyU-129">
          <mxGeometry width="50" height="50" relative="1" as="geometry">
            <mxPoint x="2730" y="380" as="sourcePoint" />
            <mxPoint x="2780" y="330" as="targetPoint" />
          </mxGeometry>
        </mxCell>
        <mxCell id="7T79qC-3Du1WpvbiEdyU-229" value="" style="group" vertex="1" connectable="0" parent="1">
          <mxGeometry x="780" y="225" width="140" height="100" as="geometry" />
        </mxCell>
        <mxCell id="7T79qC-3Du1WpvbiEdyU-230" value="" style="ellipse;whiteSpace=wrap;html=1;" vertex="1" parent="7T79qC-3Du1WpvbiEdyU-229">
          <mxGeometry width="140" height="100" as="geometry" />
        </mxCell>
        <mxCell id="7T79qC-3Du1WpvbiEdyU-231" value="Szakacs" style="ellipse;whiteSpace=wrap;html=1;" vertex="1" parent="7T79qC-3Du1WpvbiEdyU-229">
          <mxGeometry x="10" y="10" width="120" height="80" as="geometry" />
        </mxCell>
        <mxCell id="7T79qC-3Du1WpvbiEdyU-232" value="Reszleg" style="ellipse;whiteSpace=wrap;html=1;" vertex="1" parent="1">
          <mxGeometry x="790" y="395" width="120" height="80" as="geometry" />
        </mxCell>
        <mxCell id="7T79qC-3Du1WpvbiEdyU-233" value="Nev&lt;div&gt;&lt;br&gt;&lt;/div&gt;" style="ellipse;whiteSpace=wrap;html=1;" vertex="1" parent="1">
          <mxGeometry x="600" y="395" width="120" height="80" as="geometry" />
        </mxCell>
        <mxCell id="7T79qC-3Du1WpvbiEdyU-234" value="" style="group" vertex="1" connectable="0" parent="1">
          <mxGeometry x="980" y="395" width="120" height="80" as="geometry" />
        </mxCell>
        <mxCell id="7T79qC-3Du1WpvbiEdyU-235" value="" style="ellipse;whiteSpace=wrap;html=1;" vertex="1" parent="7T79qC-3Du1WpvbiEdyU-234">
          <mxGeometry width="120" height="80" as="geometry" />
        </mxCell>
        <mxCell id="7T79qC-3Du1WpvbiEdyU-236" value="Vegzettseg" style="ellipse;whiteSpace=wrap;html=1;" vertex="1" parent="7T79qC-3Du1WpvbiEdyU-234">
          <mxGeometry x="5" y="5" width="110" height="70" as="geometry" />
        </mxCell>
        <mxCell id="7T79qC-3Du1WpvbiEdyU-251" style="edgeStyle=orthogonalEdgeStyle;rounded=0;orthogonalLoop=1;jettySize=auto;html=1;dashed=1;entryX=0;entryY=1;entryDx=0;entryDy=0;" edge="1" parent="1" source="7T79qC-3Du1WpvbiEdyU-237" target="7T79qC-3Du1WpvbiEdyU-92">
          <mxGeometry relative="1" as="geometry">
            <mxPoint x="-810" y="770" as="targetPoint" />
            <Array as="points">
              <mxPoint x="1140" y="643" />
              <mxPoint x="1141" y="890" />
              <mxPoint x="-800" y="890" />
            </Array>
          </mxGeometry>
        </mxCell>
        <mxCell id="7T79qC-3Du1WpvbiEdyU-237" value="E_SZ" style="rhombus;whiteSpace=wrap;html=1;" vertex="1" parent="1">
          <mxGeometry x="1100" y="295" width="80" height="80" as="geometry" />
        </mxCell>
        <mxCell id="7T79qC-3Du1WpvbiEdyU-238" value="SZ_kod" style="rhombus;whiteSpace=wrap;html=1;" vertex="1" parent="1">
          <mxGeometry x="520" y="295" width="80" height="80" as="geometry" />
        </mxCell>
        <mxCell id="7T79qC-3Du1WpvbiEdyU-239" value="" style="endArrow=none;html=1;rounded=0;entryX=0;entryY=0;entryDx=0;entryDy=0;exitX=1;exitY=0.5;exitDx=0;exitDy=0;" edge="1" parent="1" source="7T79qC-3Du1WpvbiEdyU-230" target="7T79qC-3Du1WpvbiEdyU-237">
          <mxGeometry width="50" height="50" relative="1" as="geometry">
            <mxPoint x="1050" y="435" as="sourcePoint" />
            <mxPoint x="1100" y="385" as="targetPoint" />
          </mxGeometry>
        </mxCell>
        <mxCell id="7T79qC-3Du1WpvbiEdyU-240" value="" style="endArrow=none;html=1;rounded=0;entryX=0;entryY=0.5;entryDx=0;entryDy=0;exitX=1;exitY=0;exitDx=0;exitDy=0;" edge="1" parent="1" source="7T79qC-3Du1WpvbiEdyU-238" target="7T79qC-3Du1WpvbiEdyU-230">
          <mxGeometry width="50" height="50" relative="1" as="geometry">
            <mxPoint x="1050" y="435" as="sourcePoint" />
            <mxPoint x="1100" y="385" as="targetPoint" />
          </mxGeometry>
        </mxCell>
        <mxCell id="7T79qC-3Du1WpvbiEdyU-241" value="" style="rounded=0;whiteSpace=wrap;html=1;rotation=90;" vertex="1" parent="1">
          <mxGeometry x="990" y="525" width="100" height="60" as="geometry" />
        </mxCell>
        <mxCell id="7T79qC-3Du1WpvbiEdyU-242" value="" style="rounded=0;whiteSpace=wrap;html=1;rotation=90;" vertex="1" parent="1">
          <mxGeometry x="800" y="523" width="100" height="60" as="geometry" />
        </mxCell>
        <mxCell id="7T79qC-3Du1WpvbiEdyU-243" value="" style="rounded=0;whiteSpace=wrap;html=1;rotation=90;" vertex="1" parent="1">
          <mxGeometry x="610" y="523" width="100" height="60" as="geometry" />
        </mxCell>
        <mxCell id="7T79qC-3Du1WpvbiEdyU-244" value="" style="endArrow=none;html=1;rounded=0;entryX=0.5;entryY=1;entryDx=0;entryDy=0;exitX=0.5;exitY=0;exitDx=0;exitDy=0;" edge="1" parent="1" source="7T79qC-3Du1WpvbiEdyU-236" target="7T79qC-3Du1WpvbiEdyU-230">
          <mxGeometry width="50" height="50" relative="1" as="geometry">
            <mxPoint x="1050" y="435" as="sourcePoint" />
            <mxPoint x="1100" y="385" as="targetPoint" />
          </mxGeometry>
        </mxCell>
        <mxCell id="7T79qC-3Du1WpvbiEdyU-245" value="" style="endArrow=none;html=1;rounded=0;entryX=0.5;entryY=1;entryDx=0;entryDy=0;exitX=0;exitY=0.5;exitDx=0;exitDy=0;" edge="1" parent="1" source="7T79qC-3Du1WpvbiEdyU-243" target="7T79qC-3Du1WpvbiEdyU-233">
          <mxGeometry width="50" height="50" relative="1" as="geometry">
            <mxPoint x="1060" y="445" as="sourcePoint" />
            <mxPoint x="1110" y="395" as="targetPoint" />
          </mxGeometry>
        </mxCell>
        <mxCell id="7T79qC-3Du1WpvbiEdyU-246" value="" style="endArrow=none;html=1;rounded=0;entryX=0.5;entryY=1;entryDx=0;entryDy=0;exitX=0;exitY=0.5;exitDx=0;exitDy=0;" edge="1" parent="1" source="7T79qC-3Du1WpvbiEdyU-242" target="7T79qC-3Du1WpvbiEdyU-232">
          <mxGeometry width="50" height="50" relative="1" as="geometry">
            <mxPoint x="1070" y="455" as="sourcePoint" />
            <mxPoint x="1120" y="405" as="targetPoint" />
          </mxGeometry>
        </mxCell>
        <mxCell id="7T79qC-3Du1WpvbiEdyU-247" value="" style="endArrow=none;html=1;rounded=0;entryX=0.5;entryY=1;entryDx=0;entryDy=0;exitX=0;exitY=0.5;exitDx=0;exitDy=0;" edge="1" parent="1" source="7T79qC-3Du1WpvbiEdyU-241" target="7T79qC-3Du1WpvbiEdyU-235">
          <mxGeometry width="50" height="50" relative="1" as="geometry">
            <mxPoint x="1080" y="465" as="sourcePoint" />
            <mxPoint x="1130" y="415" as="targetPoint" />
          </mxGeometry>
        </mxCell>
        <mxCell id="7T79qC-3Du1WpvbiEdyU-248" value="" style="endArrow=none;html=1;rounded=0;entryX=0.5;entryY=1;entryDx=0;entryDy=0;exitX=0.5;exitY=0;exitDx=0;exitDy=0;" edge="1" parent="1" source="7T79qC-3Du1WpvbiEdyU-232" target="7T79qC-3Du1WpvbiEdyU-230">
          <mxGeometry width="50" height="50" relative="1" as="geometry">
            <mxPoint x="1090" y="475" as="sourcePoint" />
            <mxPoint x="1140" y="425" as="targetPoint" />
          </mxGeometry>
        </mxCell>
        <mxCell id="7T79qC-3Du1WpvbiEdyU-249" value="" style="endArrow=none;html=1;rounded=0;entryX=0.5;entryY=1;entryDx=0;entryDy=0;exitX=0.5;exitY=0;exitDx=0;exitDy=0;" edge="1" parent="1" source="7T79qC-3Du1WpvbiEdyU-233" target="7T79qC-3Du1WpvbiEdyU-230">
          <mxGeometry width="50" height="50" relative="1" as="geometry">
            <mxPoint x="1100" y="485" as="sourcePoint" />
            <mxPoint x="1150" y="435" as="targetPoint" />
          </mxGeometry>
        </mxCell>
        <mxCell id="7T79qC-3Du1WpvbiEdyU-276" value="" style="group" vertex="1" connectable="0" parent="1">
          <mxGeometry x="1501" y="225" width="140" height="100" as="geometry" />
        </mxCell>
        <mxCell id="7T79qC-3Du1WpvbiEdyU-277" value="" style="ellipse;whiteSpace=wrap;html=1;" vertex="1" parent="7T79qC-3Du1WpvbiEdyU-276">
          <mxGeometry width="140" height="100" as="geometry" />
        </mxCell>
        <mxCell id="7T79qC-3Du1WpvbiEdyU-278" value="Gyakornok" style="ellipse;whiteSpace=wrap;html=1;" vertex="1" parent="7T79qC-3Du1WpvbiEdyU-276">
          <mxGeometry x="10" y="10" width="120" height="80" as="geometry" />
        </mxCell>
        <mxCell id="7T79qC-3Du1WpvbiEdyU-279" value="Gyakorlat" style="ellipse;whiteSpace=wrap;html=1;" vertex="1" parent="1">
          <mxGeometry x="1511" y="395" width="120" height="80" as="geometry" />
        </mxCell>
        <mxCell id="7T79qC-3Du1WpvbiEdyU-280" value="Nev&lt;div&gt;&lt;br&gt;&lt;/div&gt;" style="ellipse;whiteSpace=wrap;html=1;" vertex="1" parent="1">
          <mxGeometry x="1321" y="390" width="120" height="80" as="geometry" />
        </mxCell>
        <mxCell id="7T79qC-3Du1WpvbiEdyU-281" value="" style="group" vertex="1" connectable="0" parent="1">
          <mxGeometry x="1701" y="395" width="120" height="80" as="geometry" />
        </mxCell>
        <mxCell id="7T79qC-3Du1WpvbiEdyU-282" value="" style="ellipse;whiteSpace=wrap;html=1;" vertex="1" parent="7T79qC-3Du1WpvbiEdyU-281">
          <mxGeometry width="120" height="80" as="geometry" />
        </mxCell>
        <mxCell id="7T79qC-3Du1WpvbiEdyU-283" value="Muszak" style="ellipse;whiteSpace=wrap;html=1;" vertex="1" parent="7T79qC-3Du1WpvbiEdyU-281">
          <mxGeometry x="5" y="5" width="110" height="70" as="geometry" />
        </mxCell>
        <mxCell id="7T79qC-3Du1WpvbiEdyU-305" style="edgeStyle=orthogonalEdgeStyle;rounded=0;orthogonalLoop=1;jettySize=auto;html=1;dashed=1;entryX=0;entryY=0.5;entryDx=0;entryDy=0;" edge="1" parent="1" source="7T79qC-3Du1WpvbiEdyU-284" target="7T79qC-3Du1WpvbiEdyU-92">
          <mxGeometry relative="1" as="geometry">
            <mxPoint x="-840" y="333.65708705357144" as="targetPoint" />
            <Array as="points">
              <mxPoint x="1861" y="657" />
              <mxPoint x="1862" y="657" />
              <mxPoint x="1862" y="920" />
              <mxPoint x="-840" y="920" />
              <mxPoint x="-840" y="330" />
            </Array>
          </mxGeometry>
        </mxCell>
        <mxCell id="7T79qC-3Du1WpvbiEdyU-284" value="E_GY" style="rhombus;whiteSpace=wrap;html=1;" vertex="1" parent="1">
          <mxGeometry x="1821" y="295" width="80" height="80" as="geometry" />
        </mxCell>
        <mxCell id="7T79qC-3Du1WpvbiEdyU-285" value="GY_kod" style="rhombus;whiteSpace=wrap;html=1;" vertex="1" parent="1">
          <mxGeometry x="1241" y="295" width="80" height="80" as="geometry" />
        </mxCell>
        <mxCell id="7T79qC-3Du1WpvbiEdyU-286" value="" style="endArrow=none;html=1;rounded=0;entryX=0;entryY=0;entryDx=0;entryDy=0;exitX=1;exitY=0.5;exitDx=0;exitDy=0;" edge="1" parent="1" source="7T79qC-3Du1WpvbiEdyU-277" target="7T79qC-3Du1WpvbiEdyU-284">
          <mxGeometry width="50" height="50" relative="1" as="geometry">
            <mxPoint x="1771" y="435" as="sourcePoint" />
            <mxPoint x="1821" y="385" as="targetPoint" />
          </mxGeometry>
        </mxCell>
        <mxCell id="7T79qC-3Du1WpvbiEdyU-287" value="" style="endArrow=none;html=1;rounded=0;entryX=0;entryY=0.5;entryDx=0;entryDy=0;exitX=1;exitY=0;exitDx=0;exitDy=0;" edge="1" parent="1" source="7T79qC-3Du1WpvbiEdyU-285" target="7T79qC-3Du1WpvbiEdyU-277">
          <mxGeometry width="50" height="50" relative="1" as="geometry">
            <mxPoint x="1771" y="435" as="sourcePoint" />
            <mxPoint x="1821" y="385" as="targetPoint" />
          </mxGeometry>
        </mxCell>
        <mxCell id="7T79qC-3Du1WpvbiEdyU-288" value="" style="rounded=0;whiteSpace=wrap;html=1;rotation=90;" vertex="1" parent="1">
          <mxGeometry x="1711" y="525" width="100" height="60" as="geometry" />
        </mxCell>
        <mxCell id="7T79qC-3Du1WpvbiEdyU-290" value="" style="rounded=0;whiteSpace=wrap;html=1;rotation=90;" vertex="1" parent="1">
          <mxGeometry x="1331" y="523" width="100" height="60" as="geometry" />
        </mxCell>
        <mxCell id="7T79qC-3Du1WpvbiEdyU-291" value="" style="endArrow=none;html=1;rounded=0;entryX=0.5;entryY=1;entryDx=0;entryDy=0;exitX=0.5;exitY=0;exitDx=0;exitDy=0;" edge="1" parent="1" source="7T79qC-3Du1WpvbiEdyU-283" target="7T79qC-3Du1WpvbiEdyU-277">
          <mxGeometry width="50" height="50" relative="1" as="geometry">
            <mxPoint x="1771" y="435" as="sourcePoint" />
            <mxPoint x="1821" y="385" as="targetPoint" />
          </mxGeometry>
        </mxCell>
        <mxCell id="7T79qC-3Du1WpvbiEdyU-292" value="" style="endArrow=none;html=1;rounded=0;entryX=0.5;entryY=1;entryDx=0;entryDy=0;exitX=0;exitY=0.5;exitDx=0;exitDy=0;" edge="1" parent="1" source="7T79qC-3Du1WpvbiEdyU-290" target="7T79qC-3Du1WpvbiEdyU-280">
          <mxGeometry width="50" height="50" relative="1" as="geometry">
            <mxPoint x="1781" y="445" as="sourcePoint" />
            <mxPoint x="1831" y="395" as="targetPoint" />
          </mxGeometry>
        </mxCell>
        <mxCell id="7T79qC-3Du1WpvbiEdyU-294" value="" style="endArrow=none;html=1;rounded=0;entryX=0.5;entryY=1;entryDx=0;entryDy=0;exitX=0;exitY=0.5;exitDx=0;exitDy=0;" edge="1" parent="1" source="7T79qC-3Du1WpvbiEdyU-288" target="7T79qC-3Du1WpvbiEdyU-282">
          <mxGeometry width="50" height="50" relative="1" as="geometry">
            <mxPoint x="1801" y="465" as="sourcePoint" />
            <mxPoint x="1851" y="415" as="targetPoint" />
          </mxGeometry>
        </mxCell>
        <mxCell id="7T79qC-3Du1WpvbiEdyU-295" value="" style="endArrow=none;html=1;rounded=0;entryX=0.5;entryY=1;entryDx=0;entryDy=0;exitX=0.5;exitY=0;exitDx=0;exitDy=0;" edge="1" parent="1" source="7T79qC-3Du1WpvbiEdyU-279" target="7T79qC-3Du1WpvbiEdyU-277">
          <mxGeometry width="50" height="50" relative="1" as="geometry">
            <mxPoint x="1811" y="475" as="sourcePoint" />
            <mxPoint x="1861" y="425" as="targetPoint" />
          </mxGeometry>
        </mxCell>
        <mxCell id="7T79qC-3Du1WpvbiEdyU-296" value="" style="endArrow=none;html=1;rounded=0;entryX=0.5;entryY=1;entryDx=0;entryDy=0;exitX=0.5;exitY=0;exitDx=0;exitDy=0;" edge="1" parent="1" source="7T79qC-3Du1WpvbiEdyU-280" target="7T79qC-3Du1WpvbiEdyU-277">
          <mxGeometry width="50" height="50" relative="1" as="geometry">
            <mxPoint x="1821" y="485" as="sourcePoint" />
            <mxPoint x="1871" y="435" as="targetPoint" />
          </mxGeometry>
        </mxCell>
        <mxCell id="7T79qC-3Du1WpvbiEdyU-297" value="Idotartam" style="ellipse;whiteSpace=wrap;html=1;" vertex="1" parent="1">
          <mxGeometry x="1600" y="515" width="120" height="80" as="geometry" />
        </mxCell>
        <mxCell id="7T79qC-3Du1WpvbiEdyU-298" value="Kezdete" style="ellipse;whiteSpace=wrap;html=1;" vertex="1" parent="1">
          <mxGeometry x="1420" y="513" width="120" height="80" as="geometry" />
        </mxCell>
        <mxCell id="7T79qC-3Du1WpvbiEdyU-299" value="" style="endArrow=none;html=1;rounded=0;exitX=0.5;exitY=0;exitDx=0;exitDy=0;entryX=0.5;entryY=1;entryDx=0;entryDy=0;" edge="1" parent="1" source="7T79qC-3Du1WpvbiEdyU-297" target="7T79qC-3Du1WpvbiEdyU-279">
          <mxGeometry width="50" height="50" relative="1" as="geometry">
            <mxPoint x="1310" y="450" as="sourcePoint" />
            <mxPoint x="1360" y="400" as="targetPoint" />
          </mxGeometry>
        </mxCell>
        <mxCell id="7T79qC-3Du1WpvbiEdyU-300" value="" style="endArrow=none;html=1;rounded=0;entryX=0.5;entryY=1;entryDx=0;entryDy=0;exitX=0.5;exitY=0;exitDx=0;exitDy=0;" edge="1" parent="1" source="7T79qC-3Du1WpvbiEdyU-298" target="7T79qC-3Du1WpvbiEdyU-279">
          <mxGeometry width="50" height="50" relative="1" as="geometry">
            <mxPoint x="1310" y="450" as="sourcePoint" />
            <mxPoint x="1360" y="400" as="targetPoint" />
          </mxGeometry>
        </mxCell>
        <mxCell id="7T79qC-3Du1WpvbiEdyU-301" value="" style="rounded=0;whiteSpace=wrap;html=1;rotation=90;" vertex="1" parent="1">
          <mxGeometry x="1430" y="653" width="100" height="60" as="geometry" />
        </mxCell>
        <mxCell id="7T79qC-3Du1WpvbiEdyU-302" value="" style="endArrow=none;html=1;rounded=0;entryX=0.5;entryY=1;entryDx=0;entryDy=0;exitX=0;exitY=0.5;exitDx=0;exitDy=0;" edge="1" parent="1" source="7T79qC-3Du1WpvbiEdyU-301" target="7T79qC-3Du1WpvbiEdyU-298">
          <mxGeometry width="50" height="50" relative="1" as="geometry">
            <mxPoint x="1881" y="575" as="sourcePoint" />
            <mxPoint x="1481" y="600" as="targetPoint" />
          </mxGeometry>
        </mxCell>
        <mxCell id="7T79qC-3Du1WpvbiEdyU-303" value="" style="rounded=0;whiteSpace=wrap;html=1;rotation=90;" vertex="1" parent="1">
          <mxGeometry x="1611" y="653" width="100" height="60" as="geometry" />
        </mxCell>
        <mxCell id="7T79qC-3Du1WpvbiEdyU-304" value="" style="endArrow=none;html=1;rounded=0;entryX=0.5;entryY=1;entryDx=0;entryDy=0;exitX=0;exitY=0.5;exitDx=0;exitDy=0;" edge="1" parent="1" source="7T79qC-3Du1WpvbiEdyU-303" target="7T79qC-3Du1WpvbiEdyU-297">
          <mxGeometry width="50" height="50" relative="1" as="geometry">
            <mxPoint x="2061" y="575" as="sourcePoint" />
            <mxPoint x="1661" y="600" as="targetPoint" />
          </mxGeometry>
        </mxCell>
        <mxCell id="7T79qC-3Du1WpvbiEdyU-307" value="" style="endArrow=none;html=1;rounded=0;entryX=0.5;entryY=1;entryDx=0;entryDy=0;exitX=0.5;exitY=0;exitDx=0;exitDy=0;" edge="1" parent="1" source="7T79qC-3Du1WpvbiEdyU-1" target="7T79qC-3Du1WpvbiEdyU-2">
          <mxGeometry width="50" height="50" relative="1" as="geometry">
            <mxPoint x="1120" y="-130" as="sourcePoint" />
            <mxPoint x="1170" y="-180" as="targetPoint" />
          </mxGeometry>
        </mxCell>
        <mxCell id="7T79qC-3Du1WpvbiEdyU-308" value="" style="endArrow=none;html=1;rounded=0;entryX=0.5;entryY=1;entryDx=0;entryDy=0;exitX=0.5;exitY=0;exitDx=0;exitDy=0;" edge="1" parent="1" source="7T79qC-3Du1WpvbiEdyU-94" target="7T79qC-3Du1WpvbiEdyU-1">
          <mxGeometry width="50" height="50" relative="1" as="geometry">
            <mxPoint x="1120" y="-130" as="sourcePoint" />
            <mxPoint x="1170" y="-180" as="targetPoint" />
          </mxGeometry>
        </mxCell>
        <mxCell id="7T79qC-3Du1WpvbiEdyU-309" value="" style="endArrow=none;html=1;rounded=0;entryX=0.5;entryY=1;entryDx=0;entryDy=0;exitX=0.5;exitY=0;exitDx=0;exitDy=0;" edge="1" parent="1" source="7T79qC-3Du1WpvbiEdyU-71" target="7T79qC-3Du1WpvbiEdyU-1">
          <mxGeometry width="50" height="50" relative="1" as="geometry">
            <mxPoint x="750" y="210" as="sourcePoint" />
            <mxPoint x="800" y="160" as="targetPoint" />
          </mxGeometry>
        </mxCell>
        <mxCell id="7T79qC-3Du1WpvbiEdyU-310" value="" style="endArrow=none;html=1;rounded=0;entryX=0.5;entryY=1;entryDx=0;entryDy=0;exitX=0.5;exitY=0;exitDx=0;exitDy=0;" edge="1" parent="1" source="7T79qC-3Du1WpvbiEdyU-230" target="7T79qC-3Du1WpvbiEdyU-1">
          <mxGeometry width="50" height="50" relative="1" as="geometry">
            <mxPoint x="1180" y="250" as="sourcePoint" />
            <mxPoint x="1230" y="200" as="targetPoint" />
          </mxGeometry>
        </mxCell>
        <mxCell id="7T79qC-3Du1WpvbiEdyU-311" value="" style="endArrow=none;html=1;rounded=0;entryX=0.5;entryY=1;entryDx=0;entryDy=0;exitX=0.5;exitY=0;exitDx=0;exitDy=0;" edge="1" parent="1" source="7T79qC-3Du1WpvbiEdyU-277" target="7T79qC-3Du1WpvbiEdyU-1">
          <mxGeometry width="50" height="50" relative="1" as="geometry">
            <mxPoint x="1180" y="250" as="sourcePoint" />
            <mxPoint x="1230" y="200" as="targetPoint" />
          </mxGeometry>
        </mxCell>
        <mxCell id="7T79qC-3Du1WpvbiEdyU-312" value="" style="endArrow=none;html=1;rounded=0;entryX=0.5;entryY=1;entryDx=0;entryDy=0;exitX=0.5;exitY=0;exitDx=0;exitDy=0;" edge="1" parent="1" source="7T79qC-3Du1WpvbiEdyU-42" target="7T79qC-3Du1WpvbiEdyU-1">
          <mxGeometry width="50" height="50" relative="1" as="geometry">
            <mxPoint x="2060" y="320" as="sourcePoint" />
            <mxPoint x="2110" y="270" as="targetPoint" />
          </mxGeometry>
        </mxCell>
        <mxCell id="7T79qC-3Du1WpvbiEdyU-313" value="" style="endArrow=none;html=1;rounded=0;entryX=0.5;entryY=1;entryDx=0;entryDy=0;exitX=0.5;exitY=0;exitDx=0;exitDy=0;" edge="1" parent="1" source="7T79qC-3Du1WpvbiEdyU-129" target="7T79qC-3Du1WpvbiEdyU-1">
          <mxGeometry width="50" height="50" relative="1" as="geometry">
            <mxPoint x="2060" y="320" as="sourcePoint" />
            <mxPoint x="2110" y="270" as="targetPoint" />
          </mxGeometry>
        </mxCell>
      </root>
    </mxGraphModel>
  </diagram>
</mxfile>
